<svg width="26" height="24" viewBox="0 0 26 24" fill="none" xmlns="http://www.w3.org/2000/svg">
<g opacity="0.5">
<path d="M19 6H7.00001C6.63182 6 6.33334 6.29848 6.33334 6.66667V8.66667C6.33334 9.03486 6.63182 9.33333 7.00001 9.33333H19C19.3682 9.33333 19.6667 9.03486 19.6667 8.66667V6.66667C19.6667 6.29848 19.3682 6 19 6Z" stroke="white" stroke-linecap="round" stroke-linejoin="round"/>
<path d="M7.66666 9.33337V16.6667C7.66666 17.0203 7.80713 17.3595 8.05718 17.6095C8.30723 17.8596 8.64637 18 8.99999 18H17C17.3536 18 17.6928 17.8596 17.9428 17.6095C18.1928 17.3595 18.3333 17.0203 18.3333 16.6667V9.33337" stroke="white" stroke-linecap="round" stroke-linejoin="round"/>
<path d="M11.6667 12H14.3333" stroke="white" stroke-linecap="round" stroke-linejoin="round"/>
</g>
</svg>
