<svg width="17" height="16" viewBox="0 0 17 16" fill="none" xmlns="http://www.w3.org/2000/svg">
<path d="M10.5 1.33333H6.5C6.13181 1.33333 5.83333 1.63181 5.83333 1.99999V3.33333C5.83333 3.70152 6.13181 3.99999 6.5 3.99999H10.5C10.8682 3.99999 11.1667 3.70152 11.1667 3.33333V1.99999C11.1667 1.63181 10.8682 1.33333 10.5 1.33333Z" stroke="white" stroke-linecap="round" stroke-linejoin="round"/>
<path d="M11.1667 2.66667H12.5C12.8536 2.66667 13.1928 2.80715 13.4428 3.0572C13.6929 3.30724 13.8333 3.64638 13.8333 4.00001V13.3333C13.8333 13.687 13.6929 14.0261 13.4428 14.2761C13.1928 14.5262 12.8536 14.6667 12.5 14.6667H4.5C4.14638 14.6667 3.80724 14.5262 3.55719 14.2761C3.30714 14.0261 3.16667 13.687 3.16667 13.3333V4.00001C3.16667 3.64638 3.30714 3.30724 3.55719 3.0572C3.80724 2.80715 4.14638 2.66667 4.5 2.66667H5.83333" stroke="white" stroke-linecap="round" stroke-linejoin="round"/>
</svg>
