<svg width="94" height="23" viewBox="0 0 94 23" fill="none" xmlns="http://www.w3.org/2000/svg">
<g clip-path="url(#clip0_293_137)">
<path d="M1.5604 18V4.84H4.0796L11.844 14.3152H10.622V4.84H13.63V18H11.1296L3.3464 8.5248H4.5684V18H1.5604Z" fill="white"/>
<path d="M33.6896 18.1504C32.4989 18.1504 31.5715 17.8496 30.9072 17.248C30.2429 16.6339 29.9108 15.7252 29.9108 14.522V5.6484H32.8436V14.4844C32.8436 14.9105 32.9564 15.2427 33.182 15.4808C33.4076 15.7064 33.7147 15.8192 34.1032 15.8192C34.5669 15.8192 34.9617 15.6939 35.2876 15.4432L36.0772 17.5112C35.7764 17.7243 35.4129 17.8872 34.9868 18C34.5732 18.1003 34.1408 18.1504 33.6896 18.1504ZM28.3504 10.3672V8.1112H35.3628V10.3672H28.3504ZM42.807 18.1504C41.6539 18.1504 40.6387 17.9248 39.7614 17.4736C38.8966 17.0224 38.2261 16.4083 37.7498 15.6312C37.2735 14.8416 37.0354 13.9455 37.0354 12.9428C37.0354 11.9276 37.2673 11.0315 37.731 10.2544C38.2073 9.4648 38.8527 8.85067 39.6674 8.412C40.4821 7.9608 41.4033 7.7352 42.431 7.7352C43.4211 7.7352 44.311 7.94827 45.1006 8.3744C45.9027 8.788 46.5357 9.3896 46.9994 10.1792C47.4631 10.9563 47.695 11.89 47.695 12.9804C47.695 13.0932 47.6887 13.2248 47.6762 13.3752C47.6637 13.5131 47.6511 13.6447 47.6386 13.77H39.423V12.0592H46.097L44.969 12.5668C44.969 12.0404 44.8625 11.5829 44.6494 11.1944C44.4363 10.8059 44.1418 10.5051 43.7658 10.292C43.3898 10.0664 42.9511 9.9536 42.4498 9.9536C41.9485 9.9536 41.5035 10.0664 41.115 10.292C40.739 10.5051 40.4445 10.8121 40.2314 11.2132C40.0183 11.6017 39.9118 12.0655 39.9118 12.6044V13.0556C39.9118 13.6071 40.0309 14.0959 40.269 14.522C40.5197 14.9356 40.8643 15.2552 41.303 15.4808C41.7542 15.6939 42.2806 15.8004 42.8822 15.8004C43.4211 15.8004 43.8911 15.7189 44.2922 15.556C44.7058 15.3931 45.0818 15.1487 45.4202 14.8228L46.9806 16.5148C46.5169 17.0412 45.9341 17.4485 45.2322 17.7368C44.5303 18.0125 43.7219 18.1504 42.807 18.1504ZM50.0236 18V4.0504H52.9564V18H50.0236ZM62.2583 18V16.026L62.0703 15.5936V12.0592C62.0703 11.4325 61.876 10.9437 61.4875 10.5928C61.1115 10.2419 60.5287 10.0664 59.7391 10.0664C59.2001 10.0664 58.6675 10.1541 58.1411 10.3296C57.6272 10.4925 57.1885 10.7181 56.8251 11.0064L55.7723 8.9572C56.3237 8.56867 56.988 8.26787 57.7651 8.0548C58.5421 7.84173 59.3317 7.7352 60.1339 7.7352C61.6755 7.7352 62.8724 8.09867 63.7247 8.8256C64.5769 9.55253 65.0031 10.6868 65.0031 12.2284V18H62.2583ZM59.1751 18.1504C58.3855 18.1504 57.7087 18.0188 57.1447 17.7556C56.5807 17.4799 56.1483 17.1101 55.8475 16.6464C55.5467 16.1827 55.3963 15.6625 55.3963 15.086C55.3963 14.4844 55.5404 13.958 55.8287 13.5068C56.1295 13.0556 56.5995 12.7047 57.2387 12.454C57.8779 12.1908 58.7113 12.0592 59.7391 12.0592H62.4275V13.77H60.0587C59.3693 13.77 58.8931 13.8828 58.6299 14.1084C58.3792 14.334 58.2539 14.616 58.2539 14.9544C58.2539 15.3304 58.398 15.6312 58.6863 15.8568C58.9871 16.0699 59.3944 16.1764 59.9083 16.1764C60.3971 16.1764 60.8357 16.0636 61.2243 15.838C61.6128 15.5999 61.8948 15.2552 62.0703 14.804L62.5215 16.1576C62.3084 16.8093 61.9199 17.3044 61.3559 17.6428C60.7919 17.9812 60.0649 18.1504 59.1751 18.1504ZM74.0118 18.1504C73.1219 18.1504 72.3574 17.9624 71.7182 17.5864C71.079 17.2104 70.5902 16.6401 70.2518 15.8756C69.9134 15.0985 69.7442 14.1209 69.7442 12.9428C69.7442 11.7521 69.9196 10.7745 70.2706 10.01C70.634 9.24547 71.1354 8.6752 71.7746 8.2992C72.4138 7.9232 73.1595 7.7352 74.0118 7.7352C74.9643 7.7352 75.8166 7.94827 76.5686 8.3744C77.3331 8.80053 77.9347 9.40213 78.3734 10.1792C78.8246 10.9563 79.0502 11.8775 79.0502 12.9428C79.0502 13.9956 78.8246 14.9105 78.3734 15.6876C77.9347 16.4647 77.3331 17.0725 76.5686 17.5112C75.8166 17.9373 74.9643 18.1504 74.0118 18.1504ZM68.0334 18V4.0504H70.9662V9.9348L70.7782 12.924L70.8346 15.932V18H68.0334ZM73.5042 15.744C73.993 15.744 74.4254 15.6312 74.8014 15.4056C75.1899 15.18 75.497 14.8604 75.7226 14.4468C75.9607 14.0207 76.0798 13.5193 76.0798 12.9428C76.0798 12.3537 75.9607 11.8524 75.7226 11.4388C75.497 11.0252 75.1899 10.7056 74.8014 10.48C74.4254 10.2544 73.993 10.1416 73.5042 10.1416C73.0154 10.1416 72.5767 10.2544 72.1882 10.48C71.7996 10.7056 71.4926 11.0252 71.267 11.4388C71.0414 11.8524 70.9286 12.3537 70.9286 12.9428C70.9286 13.5193 71.0414 14.0207 71.267 14.4468C71.4926 14.8604 71.7996 15.18 72.1882 15.4056C72.5767 15.6312 73.0154 15.744 73.5042 15.744Z" fill="white"/>
<path d="M81.883 18.1128C81.507 18.1128 81.1827 17.9859 80.9101 17.7321C80.6469 17.4689 80.5153 17.1352 80.5153 16.731C80.5153 16.3268 80.6469 16.0025 80.9101 15.7581C81.1827 15.5043 81.507 15.3774 81.883 15.3774C82.2684 15.3774 82.5927 15.5043 82.8559 15.7581C83.1191 16.0025 83.2507 16.3268 83.2507 16.731C83.2507 17.1352 83.1191 17.4689 82.8559 17.7321C82.5927 17.9859 82.2684 18.1128 81.883 18.1128Z" fill="#6234EF"/>
<ellipse cx="21.15" cy="13.0862" rx="5.48333" ry="5.55172" fill="#6234EF"/>
<path d="M18.0166 12.6103L20.3666 15.4655L22.3249 13.0862L24.2833 10.7069" stroke="white" stroke-width="1.175" stroke-linecap="round" stroke-linejoin="round"/>
</g>
<defs>
<clipPath id="clip0_293_137">
<rect width="94" height="23" fill="white"/>
</clipPath>
</defs>
</svg>
