<svg width="94" height="23" viewBox="0 0 94 23" fill="none" xmlns="http://www.w3.org/2000/svg">
<g clip-path="url(#clip0_313_185)">
<path d="M1.5604 18V4.84H4.0796L11.844 14.3152H10.622V4.84H13.63V18H11.1296L3.3464 8.5248H4.5684V18H1.5604Z" fill="#6234EF"/>
<path d="M33.6896 18.1504C32.4989 18.1504 31.5714 17.8496 30.9072 17.248C30.2429 16.6339 29.9108 15.7252 29.9108 14.522V5.6484H32.8436V14.4844C32.8436 14.9105 32.9564 15.2427 33.182 15.4808C33.4076 15.7064 33.7146 15.8192 34.1032 15.8192C34.5669 15.8192 34.9617 15.6939 35.2876 15.4432L36.0772 17.5112C35.7764 17.7243 35.4129 17.8872 34.9868 18C34.5732 18.1003 34.1408 18.1504 33.6896 18.1504ZM28.3504 10.3672V8.1112H35.3628V10.3672H28.3504ZM42.807 18.1504C41.6539 18.1504 40.6387 17.9248 39.7614 17.4736C38.8966 17.0224 38.226 16.4083 37.7498 15.6312C37.2735 14.8416 37.0354 13.9455 37.0354 12.9428C37.0354 11.9276 37.2672 11.0315 37.731 10.2544C38.2072 9.4648 38.8527 8.85067 39.6674 8.412C40.482 7.9608 41.4032 7.7352 42.431 7.7352C43.4211 7.7352 44.311 7.94827 45.1006 8.3744C45.9027 8.788 46.5356 9.3896 46.9994 10.1792C47.4631 10.9563 47.695 11.89 47.695 12.9804C47.695 13.0932 47.6887 13.2248 47.6762 13.3752C47.6636 13.5131 47.6511 13.6447 47.6386 13.77H39.423V12.0592H46.097L44.969 12.5668C44.969 12.0404 44.8624 11.5829 44.6494 11.1944C44.4363 10.8059 44.1418 10.5051 43.7658 10.292C43.3898 10.0664 42.9511 9.9536 42.4498 9.9536C41.9484 9.9536 41.5035 10.0664 41.115 10.292C40.739 10.5051 40.4444 10.8121 40.2314 11.2132C40.0183 11.6017 39.9118 12.0655 39.9118 12.6044V13.0556C39.9118 13.6071 40.0308 14.0959 40.269 14.522C40.5196 14.9356 40.8643 15.2552 41.303 15.4808C41.7542 15.6939 42.2806 15.8004 42.8822 15.8004C43.4211 15.8004 43.8911 15.7189 44.2922 15.556C44.7058 15.3931 45.0818 15.1487 45.4202 14.8228L46.9806 16.5148C46.5168 17.0412 45.934 17.4485 45.2322 17.7368C44.5303 18.0125 43.7219 18.1504 42.807 18.1504ZM50.0235 18V4.0504H52.9563V18H50.0235ZM62.2582 18V16.026L62.0702 15.5936V12.0592C62.0702 11.4325 61.8759 10.9437 61.4874 10.5928C61.1114 10.2419 60.5286 10.0664 59.739 10.0664C59.2001 10.0664 58.6674 10.1541 58.141 10.3296C57.6271 10.4925 57.1885 10.7181 56.825 11.0064L55.7722 8.9572C56.3237 8.56867 56.9879 8.26787 57.765 8.0548C58.5421 7.84173 59.3317 7.7352 60.1338 7.7352C61.6754 7.7352 62.8723 8.09867 63.7246 8.8256C64.5769 9.55253 65.003 10.6868 65.003 12.2284V18H62.2582ZM59.175 18.1504C58.3854 18.1504 57.7086 18.0188 57.1446 17.7556C56.5806 17.4799 56.1482 17.1101 55.8474 16.6464C55.5466 16.1827 55.3962 15.6625 55.3962 15.086C55.3962 14.4844 55.5403 13.958 55.8286 13.5068C56.1294 13.0556 56.5994 12.7047 57.2386 12.454C57.8778 12.1908 58.7113 12.0592 59.739 12.0592H62.4274V13.77H60.0586C59.3693 13.77 58.893 13.8828 58.6298 14.1084C58.3791 14.334 58.2538 14.616 58.2538 14.9544C58.2538 15.3304 58.3979 15.6312 58.6862 15.8568C58.987 16.0699 59.3943 16.1764 59.9082 16.1764C60.397 16.1764 60.8357 16.0636 61.2242 15.838C61.6127 15.5999 61.8947 15.2552 62.0702 14.804L62.5214 16.1576C62.3083 16.8093 61.9198 17.3044 61.3558 17.6428C60.7918 17.9812 60.0649 18.1504 59.175 18.1504ZM74.0117 18.1504C73.1219 18.1504 72.3573 17.9624 71.7181 17.5864C71.0789 17.2104 70.5901 16.6401 70.2517 15.8756C69.9133 15.0985 69.7441 14.1209 69.7441 12.9428C69.7441 11.7521 69.9196 10.7745 70.2705 10.01C70.634 9.24547 71.1353 8.6752 71.7745 8.2992C72.4137 7.9232 73.1595 7.7352 74.0117 7.7352C74.9643 7.7352 75.8165 7.94827 76.5685 8.3744C77.3331 8.80053 77.9347 9.40213 78.3733 10.1792C78.8245 10.9563 79.0501 11.8775 79.0501 12.9428C79.0501 13.9956 78.8245 14.9105 78.3733 15.6876C77.9347 16.4647 77.3331 17.0725 76.5685 17.5112C75.8165 17.9373 74.9643 18.1504 74.0117 18.1504ZM68.0333 18V4.0504H70.9661V9.9348L70.7781 12.924L70.8345 15.932V18H68.0333ZM73.5041 15.744C73.9929 15.744 74.4253 15.6312 74.8013 15.4056C75.1899 15.18 75.4969 14.8604 75.7225 14.4468C75.9607 14.0207 76.0797 13.5193 76.0797 12.9428C76.0797 12.3537 75.9607 11.8524 75.7225 11.4388C75.4969 11.0252 75.1899 10.7056 74.8013 10.48C74.4253 10.2544 73.9929 10.1416 73.5041 10.1416C73.0153 10.1416 72.5767 10.2544 72.1881 10.48C71.7996 10.7056 71.4925 11.0252 71.2669 11.4388C71.0413 11.8524 70.9285 12.3537 70.9285 12.9428C70.9285 13.5193 71.0413 14.0207 71.2669 14.4468C71.4925 14.8604 71.7996 15.18 72.1881 15.4056C72.5767 15.6312 73.0153 15.744 73.5041 15.744Z" fill="#6234EF"/>
<path d="M81.8829 18.1128C81.5069 18.1128 81.1826 17.9859 80.91 17.7321C80.6468 17.4689 80.5152 17.1352 80.5152 16.731C80.5152 16.3268 80.6468 16.0025 80.91 15.7581C81.1826 15.5043 81.5069 15.3774 81.8829 15.3774C82.2683 15.3774 82.5926 15.5043 82.8558 15.7581C83.119 16.0025 83.2506 16.3268 83.2506 16.731C83.2506 17.1352 83.119 17.4689 82.8558 17.7321C82.5926 17.9859 82.2683 18.1128 81.8829 18.1128Z" fill="white"/>
<circle cx="21.1501" cy="12.925" r="5.48333" fill="#6234EF"/>
<path d="M18.0166 12.455L20.3666 15.275L22.3249 12.925L24.2833 10.575" stroke="white" stroke-width="1.175" stroke-linecap="round" stroke-linejoin="round"/>
</g>
<defs>
<clipPath id="clip0_313_185">
<rect width="94" height="22.7167" fill="white"/>
</clipPath>
</defs>
</svg>
