<svg width="16" height="16" viewBox="0 0 16 16" fill="none" xmlns="http://www.w3.org/2000/svg">
<path d="M9.33325 1.33334V4.00001C9.33325 4.35363 9.47373 4.69277 9.72378 4.94282C9.97383 5.19287 10.313 5.33334 10.6666 5.33334H13.3333" stroke="white" stroke-linecap="round" stroke-linejoin="round"/>
<path d="M10.6667 14.6667H12.0001C12.3537 14.6667 12.6928 14.5262 12.9429 14.2762C13.1929 14.0261 13.3334 13.687 13.3334 13.3333V4.66668L10.0001 1.33334H4.00008C3.64646 1.33334 3.30732 1.47382 3.05727 1.72387C2.80722 1.97392 2.66675 2.31305 2.66675 2.66668V4.66668" stroke="white" stroke-linecap="round" stroke-linejoin="round"/>
<path d="M5.33325 9.33334V10.8L6.39992 11.4667" stroke="white" stroke-linecap="round" stroke-linejoin="round"/>
<path d="M5.33325 14.6667C7.54239 14.6667 9.33325 12.8758 9.33325 10.6667C9.33325 8.45752 7.54239 6.66666 5.33325 6.66666C3.12411 6.66666 1.33325 8.45752 1.33325 10.6667C1.33325 12.8758 3.12411 14.6667 5.33325 14.6667Z" stroke="white" stroke-linecap="round" stroke-linejoin="round"/>
</svg>
