<svg width="94" height="23" viewBox="0 0 94 23" fill="none" xmlns="http://www.w3.org/2000/svg">
<g clip-path="url(#clip0_313_179)">
<path d="M1.5604 18V4.84H4.0796L11.844 14.3152H10.622V4.84H13.63V18H11.1296L3.3464 8.5248H4.5684V18H1.5604Z" fill="white"/>
<path d="M33.6898 18.1504C32.4991 18.1504 31.5717 17.8496 30.9074 17.248C30.2431 16.6339 29.911 15.7252 29.911 14.522V5.6484H32.8438V14.4844C32.8438 14.9105 32.9566 15.2427 33.1822 15.4808C33.4078 15.7064 33.7149 15.8192 34.1034 15.8192C34.5671 15.8192 34.9619 15.6939 35.2878 15.4432L36.0774 17.5112C35.7766 17.7243 35.4131 17.8872 34.987 18C34.5734 18.1003 34.141 18.1504 33.6898 18.1504ZM28.3506 10.3672V8.1112H35.363V10.3672H28.3506ZM42.8072 18.1504C41.6541 18.1504 40.6389 17.9248 39.7616 17.4736C38.8968 17.0224 38.2263 16.4083 37.75 15.6312C37.2737 14.8416 37.0356 13.9455 37.0356 12.9428C37.0356 11.9276 37.2675 11.0315 37.7312 10.2544C38.2075 9.4648 38.8529 8.85067 39.6676 8.412C40.4823 7.9608 41.4035 7.7352 42.4312 7.7352C43.4213 7.7352 44.3112 7.94827 45.1008 8.3744C45.9029 8.788 46.5359 9.3896 46.9996 10.1792C47.4633 10.9563 47.6952 11.89 47.6952 12.9804C47.6952 13.0932 47.6889 13.2248 47.6764 13.3752C47.6639 13.5131 47.6513 13.6447 47.6388 13.77H39.4232V12.0592H46.0972L44.9692 12.5668C44.9692 12.0404 44.8627 11.5829 44.6496 11.1944C44.4365 10.8059 44.142 10.5051 43.766 10.292C43.39 10.0664 42.9513 9.9536 42.45 9.9536C41.9487 9.9536 41.5037 10.0664 41.1152 10.292C40.7392 10.5051 40.4447 10.8121 40.2316 11.2132C40.0185 11.6017 39.912 12.0655 39.912 12.6044V13.0556C39.912 13.6071 40.0311 14.0959 40.2692 14.522C40.5199 14.9356 40.8645 15.2552 41.3032 15.4808C41.7544 15.6939 42.2808 15.8004 42.8824 15.8004C43.4213 15.8004 43.8913 15.7189 44.2924 15.556C44.706 15.3931 45.082 15.1487 45.4204 14.8228L46.9808 16.5148C46.5171 17.0412 45.9343 17.4485 45.2324 17.7368C44.5305 18.0125 43.7221 18.1504 42.8072 18.1504ZM50.0238 18V4.0504H52.9566V18H50.0238ZM62.2585 18V16.026L62.0705 15.5936V12.0592C62.0705 11.4325 61.8762 10.9437 61.4877 10.5928C61.1117 10.2419 60.5289 10.0664 59.7393 10.0664C59.2003 10.0664 58.6677 10.1541 58.1413 10.3296C57.6274 10.4925 57.1887 10.7181 56.8253 11.0064L55.7725 8.9572C56.3239 8.56867 56.9882 8.26787 57.7653 8.0548C58.5423 7.84173 59.3319 7.7352 60.1341 7.7352C61.6757 7.7352 62.8726 8.09867 63.7249 8.8256C64.5771 9.55253 65.0033 10.6868 65.0033 12.2284V18H62.2585ZM59.1753 18.1504C58.3857 18.1504 57.7089 18.0188 57.1449 17.7556C56.5809 17.4799 56.1485 17.1101 55.8477 16.6464C55.5469 16.1827 55.3965 15.6625 55.3965 15.086C55.3965 14.4844 55.5406 13.958 55.8289 13.5068C56.1297 13.0556 56.5997 12.7047 57.2389 12.454C57.8781 12.1908 58.7115 12.0592 59.7393 12.0592H62.4277V13.77H60.0589C59.3695 13.77 58.8933 13.8828 58.6301 14.1084C58.3794 14.334 58.2541 14.616 58.2541 14.9544C58.2541 15.3304 58.3982 15.6312 58.6865 15.8568C58.9873 16.0699 59.3946 16.1764 59.9085 16.1764C60.3973 16.1764 60.8359 16.0636 61.2245 15.838C61.613 15.5999 61.895 15.2552 62.0705 14.804L62.5217 16.1576C62.3086 16.8093 61.9201 17.3044 61.3561 17.6428C60.7921 17.9812 60.0651 18.1504 59.1753 18.1504ZM74.012 18.1504C73.1221 18.1504 72.3576 17.9624 71.7184 17.5864C71.0792 17.2104 70.5904 16.6401 70.252 15.8756C69.9136 15.0985 69.7444 14.1209 69.7444 12.9428C69.7444 11.7521 69.9198 10.7745 70.2708 10.01C70.6342 9.24547 71.1356 8.6752 71.7748 8.2992C72.414 7.9232 73.1597 7.7352 74.012 7.7352C74.9645 7.7352 75.8168 7.94827 76.5688 8.3744C77.3333 8.80053 77.9349 9.40213 78.3736 10.1792C78.8248 10.9563 79.0504 11.8775 79.0504 12.9428C79.0504 13.9956 78.8248 14.9105 78.3736 15.6876C77.9349 16.4647 77.3333 17.0725 76.5688 17.5112C75.8168 17.9373 74.9645 18.1504 74.012 18.1504ZM68.0336 18V4.0504H70.9664V9.9348L70.7784 12.924L70.8348 15.932V18H68.0336ZM73.5044 15.744C73.9932 15.744 74.4256 15.6312 74.8016 15.4056C75.1901 15.18 75.4972 14.8604 75.7228 14.4468C75.9609 14.0207 76.08 13.5193 76.08 12.9428C76.08 12.3537 75.9609 11.8524 75.7228 11.4388C75.4972 11.0252 75.1901 10.7056 74.8016 10.48C74.4256 10.2544 73.9932 10.1416 73.5044 10.1416C73.0156 10.1416 72.5769 10.2544 72.1884 10.48C71.7998 10.7056 71.4928 11.0252 71.2672 11.4388C71.0416 11.8524 70.9288 12.3537 70.9288 12.9428C70.9288 13.5193 71.0416 14.0207 71.2672 14.4468C71.4928 14.8604 71.7998 15.18 72.1884 15.4056C72.5769 15.6312 73.0156 15.744 73.5044 15.744ZM81.8832 18.1128C81.5072 18.1128 81.1829 17.9859 80.9103 17.7321C80.6471 17.4689 80.5155 17.1352 80.5155 16.731C80.5155 16.3268 80.6471 16.0025 80.9103 15.7581C81.1829 15.5043 81.5072 15.3774 81.8832 15.3774C82.2686 15.3774 82.5929 15.5043 82.8561 15.7581C83.1193 16.0025 83.2509 16.3268 83.2509 16.731C83.2509 17.1352 83.1193 17.4689 82.8561 17.7321C82.5929 17.9859 82.2686 18.1128 81.8832 18.1128Z" fill="white"/>
<circle cx="21.1498" cy="12.925" r="5.48333" fill="white"/>
<path d="M18.0166 12.455L20.3666 15.275L22.3249 12.925L24.2833 10.575" stroke="#6234EF" stroke-width="1.175" stroke-linecap="round" stroke-linejoin="round"/>
</g>
<defs>
<clipPath id="clip0_313_179">
<rect width="94" height="22.7167" fill="white"/>
</clipPath>
</defs>
</svg>
