<svg width="26" height="24" viewBox="0 0 26 24" fill="none" xmlns="http://www.w3.org/2000/svg">
<g opacity="0.5">
<path d="M13.1467 5.33337H12.8533C12.4997 5.33337 12.1606 5.47385 11.9105 5.7239C11.6605 5.97395 11.52 6.31309 11.52 6.66671V6.78671C11.5198 7.02052 11.458 7.25017 11.341 7.4526C11.224 7.65503 11.0558 7.82313 10.8533 7.94004L10.5667 8.10671C10.364 8.22373 10.134 8.28534 9.9 8.28534C9.66595 8.28534 9.43603 8.22373 9.23333 8.10671L9.13333 8.05337C8.82738 7.87688 8.46389 7.829 8.12267 7.92025C7.78145 8.01149 7.49037 8.2344 7.31333 8.54004L7.16667 8.79337C6.99018 9.09933 6.9423 9.46282 7.03354 9.80404C7.12478 10.1453 7.34769 10.4363 7.65333 10.6134L7.75333 10.68C7.95485 10.7964 8.12241 10.9634 8.23937 11.1646C8.35632 11.3658 8.4186 11.594 8.42 11.8267V12.1667C8.42093 12.4017 8.35977 12.6327 8.2427 12.8364C8.12563 13.0401 7.95681 13.2092 7.75333 13.3267L7.65333 13.3867C7.34769 13.5637 7.12478 13.8548 7.03354 14.196C6.9423 14.5373 6.99018 14.9008 7.16667 15.2067L7.31333 15.46C7.49037 15.7657 7.78145 15.9886 8.12267 16.0798C8.46389 16.1711 8.82738 16.1232 9.13333 15.9467L9.23333 15.8934C9.43603 15.7763 9.66595 15.7147 9.9 15.7147C10.134 15.7147 10.364 15.7763 10.5667 15.8934L10.8533 16.06C11.0558 16.1769 11.224 16.3451 11.341 16.5475C11.458 16.7499 11.5198 16.9796 11.52 17.2134V17.3334C11.52 17.687 11.6605 18.0261 11.9105 18.2762C12.1606 18.5262 12.4997 18.6667 12.8533 18.6667H13.1467C13.5003 18.6667 13.8394 18.5262 14.0895 18.2762C14.3395 18.0261 14.48 17.687 14.48 17.3334V17.2134C14.4802 16.9796 14.542 16.7499 14.659 16.5475C14.776 16.3451 14.9442 16.1769 15.1467 16.06L15.4333 15.8934C15.636 15.7763 15.866 15.7147 16.1 15.7147C16.334 15.7147 16.564 15.7763 16.7667 15.8934L16.8667 15.9467C17.1726 16.1232 17.5361 16.1711 17.8773 16.0798C18.2186 15.9886 18.5096 15.7657 18.6867 15.46L18.8333 15.2C19.0098 14.8941 19.0577 14.5306 18.9665 14.1894C18.8752 13.8482 18.6523 13.5571 18.3467 13.38L18.2467 13.3267C18.0432 13.2092 17.8744 13.0401 17.7573 12.8364C17.6402 12.6327 17.5791 12.4017 17.58 12.1667V11.8334C17.5791 11.5984 17.6402 11.3674 17.7573 11.1637C17.8744 10.96 18.0432 10.7908 18.2467 10.6734L18.3467 10.6134C18.6523 10.4363 18.8752 10.1453 18.9665 9.80404C19.0577 9.46282 19.0098 9.09933 18.8333 8.79337L18.6867 8.54004C18.5096 8.2344 18.2186 8.01149 17.8773 7.92025C17.5361 7.829 17.1726 7.87688 16.8667 8.05337L16.7667 8.10671C16.564 8.22373 16.334 8.28534 16.1 8.28534C15.866 8.28534 15.636 8.22373 15.4333 8.10671L15.1467 7.94004C14.9442 7.82313 14.776 7.65503 14.659 7.4526C14.542 7.25017 14.4802 7.02052 14.48 6.78671V6.66671C14.48 6.31309 14.3395 5.97395 14.0895 5.7239C13.8394 5.47385 13.5003 5.33337 13.1467 5.33337Z" stroke="white" stroke-linecap="round" stroke-linejoin="round"/>
<path d="M13 14C14.1046 14 15 13.1046 15 12C15 10.8954 14.1046 10 13 10C11.8954 10 11 10.8954 11 12C11 13.1046 11.8954 14 13 14Z" stroke="white" stroke-linecap="round" stroke-linejoin="round"/>
</g>
</svg>
