<svg width="17" height="16" viewBox="0 0 17 16" fill="none" xmlns="http://www.w3.org/2000/svg">
<path d="M9.83333 1.33333V3.99999C9.83333 4.35362 9.97381 4.69276 10.2239 4.9428C10.4739 5.19285 10.813 5.33333 11.1667 5.33333H13.8333" stroke="white" stroke-linecap="round" stroke-linejoin="round"/>
<path d="M11.1667 14.6667H12.5C12.8536 14.6667 13.1928 14.5262 13.4428 14.2761C13.6929 14.0261 13.8333 13.6869 13.8333 13.3333V4.66666L10.5 1.33333H4.5C4.14638 1.33333 3.80724 1.4738 3.55719 1.72385C3.30714 1.9739 3.16667 2.31304 3.16667 2.66666V4.66666" stroke="white" stroke-linecap="round" stroke-linejoin="round"/>
<path d="M5.83333 9.33333V10.8L6.9 11.4667" stroke="white" stroke-linecap="round" stroke-linejoin="round"/>
<path d="M5.83333 14.6667C8.04247 14.6667 9.83333 12.8758 9.83333 10.6667C9.83333 8.45753 8.04247 6.66667 5.83333 6.66667C3.62419 6.66667 1.83333 8.45753 1.83333 10.6667C1.83333 12.8758 3.62419 14.6667 5.83333 14.6667Z" stroke="white" stroke-linecap="round" stroke-linejoin="round"/>
</svg>
